<?xml version="1.0" encoding="utf-8"?>
<!-- Generator: Adobe Illustrator 18.1.1, SVG Export Plug-In . SVG Version: 6.00 Build 0)  -->
<svg version="1.1" id="Layer_1" xmlns="http://www.w3.org/2000/svg" xmlns:xlink="http://www.w3.org/1999/xlink" x="0px" y="0px"
	 viewBox="0 0 123 87" enable-background="new 0 0 123 87" xml:space="preserve">
<g>
	<g>
		<path fill="#404041" d="M61.5,13.1c3.4,0,6.8,1.4,9.6,3.4L68.6,12L61.7,0.1c-0.1-0.2-0.4-0.2-0.5,0l-7.1,12.2l-2.4,4.2
			C54.7,14.5,58,13.1,61.5,13.1z"/>
		<path fill="#404041" d="M90,49.1l-9.7-16.9l-0.4-0.7c-0.8,2.9-2.8,6.2-4.3,8.3c0.9,0.9,1.4,2.1,1.4,3.3c0,2.3-1.6,4.2-3.8,4.6
			c-0.2,0.6-0.5,1.2-0.7,1.8h1.9h15.5C90,49.5,90.1,49.3,90,49.1z"/>
		<path fill="#404041" d="M50.7,47.7c-2.3-0.3-4-2.3-4-4.7c0-1.3,0.6-2.6,1.5-3.4c-1.9-2.2-4.2-5.3-5-8.1l-0.8,1.4L33,49.1
			c-0.1,0.2,0,0.4,0.2,0.4h17h1.1C51.1,48.9,50.9,48.3,50.7,47.7z"/>
	</g>
	<path fill="#404041" stroke="#231F20" stroke-width="0.2963" stroke-miterlimit="10" d="M55.3,45.2"/>
	<g>
		<path fill="#404041" d="M0,67.2h0.7l0,0c0.1,0,1.3-1,1.3-3h2v12.4l-1.2,0.3v0.5h5.8v-0.5l-1.2-0.3V64.1h2c0,2,1.3,3,1.3,3l0,0h0.7
			v-3.7H0V67.2z"/>
		<polygon fill="#404041" points="20.9,63.9 22.1,64.2 22.1,70.1 18.1,70.1 18.1,64.2 19.2,63.9 19.2,63.4 13.5,63.4 13.5,63.9 
			14.6,64.2 14.6,76.6 13.5,76.8 13.5,77.3 19.2,77.3 19.2,76.8 18.1,76.6 18.1,70.8 22.1,70.8 22.1,76.6 20.9,76.8 20.9,77.3 
			26.7,77.3 26.7,76.8 25.5,76.6 25.5,64.2 26.7,63.9 26.7,63.4 20.9,63.4 		"/>
		<polygon fill="#404041" points="28.7,63.9 29.9,64.2 29.9,76.6 28.7,76.8 28.7,77.3 34.5,77.3 34.5,76.8 33.3,76.6 33.3,64.2 
			34.5,63.9 34.5,63.4 28.7,63.4 		"/>
		<path fill="#404041" d="M46.7,72.7c-0.5-1.1-1.6-1.5-2.4-1.7c0.4-0.1,0.9-0.2,1.4-0.4c1.6-0.6,2.4-1.7,2.4-3.3
			c0-2.6-2.1-3.9-6.4-3.9h-5.3v0.5l1.2,0.3v12.4l-1.2,0.3v0.5h6v-0.5l-1.4-0.3v-5.3h1.1l1.9,4.3c0.5,1.1,1.3,1.7,2.4,1.7h2.8v-0.5
			l-1-0.3L46.7,72.7z M44.7,67.3c0,2-1.1,3.2-2.8,3.2h-0.7v-6.4h0.7C43.6,64.1,44.7,65.3,44.7,67.3z"/>
		<path fill="#404041" d="M56.1,63.4h-5.1v0.5l1.2,0.3v12.4l-1.2,0.3v0.5h5.1c4.7,0,7.3-2.5,7.3-6.9S60.8,63.4,56.1,63.4z
			 M59.9,70.4c0,1.5,0,6.3-3.7,6.3h-0.5V64.1h0.5C57.1,64.1,59.9,64.1,59.9,70.4z"/>
		<path fill="#404041" d="M84.7,63.9l1.4,0.6l-2.7,8l-2.9-7.3c-0.4-1.1-1.4-1.7-2.7-1.7h-2.4v0.5l1.1,0.2l1.4,3.6l-1.6,4.8l-2.9-7.3
			c-0.2-0.5-0.9-1.7-2.7-1.7h-2.4v0.5l1.1,0.2l5.3,13.3l0,0.1h0.7l3-8.7l3.4,8.7l0,0.1h0.7l4.4-13l1.6-0.6v-0.5h-3.8V63.9z"/>
		<polygon fill="#404041" points="90,63.9 91.1,64.2 91.1,76.6 90,76.8 90,77.3 95.7,77.3 95.7,76.8 94.6,76.6 94.6,64.2 95.7,63.9 
			95.7,63.4 90,63.4 		"/>
		<path fill="#404041" d="M104.4,69.1c-1.6-0.9-3.1-1.8-3.1-3.3c0-1.3,0.9-2.1,1.8-2.1c2.5,0,3.4,3.3,3.4,3.3l0,0.1h1v-3.9h-0.6l0,0
			c0,0-0.6,0.4-1,1c-0.3-0.3-1.5-1.2-3.1-1.2c-3,0-4.9,1.4-4.9,3.5c0,2.7,2.2,3.9,4.1,5c1.5,0.9,2.9,1.6,2.9,2.9
			c0,1.4-0.9,2.3-2.3,2.3c-2.9,0-3.8-3.3-3.8-3.3l0-0.1h-1v3.9h0.6l0,0c0,0,0.6-0.4,1-1c0.3,0.3,1.6,1.2,3.5,1.2
			c4,0,5.5-2.1,5.5-3.9C108.3,71.4,106.2,70.2,104.4,69.1z"/>
		<polygon fill="#404041" points="123,63.9 123,63.4 117.2,63.4 117.2,63.9 118.4,64.2 118.4,70.1 114.4,70.1 114.4,64.2 
			115.6,63.9 115.6,63.4 109.8,63.4 109.8,63.9 111,64.2 111,76.6 109.8,76.8 109.8,77.3 115.6,77.3 115.6,76.8 114.4,76.6 
			114.4,70.8 118.4,70.8 118.4,76.6 117.2,76.8 117.2,77.3 123,77.3 123,76.8 121.8,76.6 121.8,64.2 		"/>
	</g>
	<g>
		<path fill="#404041" d="M33.2,85.6L33.2,85.6c-0.2,0.2-0.4,0.3-0.5,0.4c-0.2,0.1-0.3,0.1-0.6,0.1c-0.3,0-0.6-0.1-0.8-0.4
			c-0.2-0.2-0.3-0.5-0.3-0.9v0c0-0.3,0.1-0.6,0.3-0.9c0.2-0.2,0.5-0.4,0.8-0.4c0.4,0,0.7,0.2,1,0.5l0,0l0.6-0.7l0,0
			c-0.2-0.2-0.4-0.4-0.7-0.5c-0.3-0.1-0.6-0.2-0.9-0.2c-0.6,0-1.2,0.2-1.6,0.6c-0.4,0.4-0.6,0.9-0.6,1.5v0c0,0.6,0.2,1.1,0.6,1.5
			c0.4,0.4,0.9,0.6,1.5,0.6c0.4,0,0.7-0.1,1-0.2c0.3-0.1,0.5-0.3,0.7-0.6l0,0L33.2,85.6L33.2,85.6z"/>
		<path fill="#404041" d="M42.1,84.2L42.1,84.2c0-0.4-0.1-0.7-0.4-1c-0.3-0.3-0.7-0.4-1.2-0.4h-1.9V87h1v-1.3h0.7l0.9,1.3l0,0h1.1
			l-1-1.5C41.8,85.2,42.1,84.8,42.1,84.2z M39.6,83.6h0.9c0.2,0,0.4,0,0.5,0.1c0.1,0.1,0.2,0.2,0.2,0.4v0c0,0.2-0.1,0.3-0.2,0.4
			c-0.1,0.1-0.3,0.2-0.5,0.2h-0.9V83.6z"/>
		<polygon fill="#404041" points="48,85.3 49.9,85.3 49.9,84.4 48,84.4 48,83.6 50.2,83.6 50.2,82.7 47,82.7 47,87 50.2,87 
			50.2,86.1 48,86.1 		"/>
		<path fill="#404041" d="M57.4,82.7h-0.9l-1.8,4.2l0,0.1h1l0.4-0.9h1.7l0.4,0.9l0,0h1L57.4,82.7L57.4,82.7z M57.5,85.2h-1l0.5-1.2
			L57.5,85.2z"/>
		<polygon fill="#404041" points="63.6,83.7 64.9,83.7 64.9,87 65.8,87 65.8,83.7 67.1,83.7 67.1,82.7 63.6,82.7 		"/>
		<rect x="71.9" y="82.7" fill="#404041" width="1" height="4.2"/>
		<polygon fill="#404041" points="79.8,85.6 78.7,82.8 78.7,82.7 77.6,82.7 79.3,87 79.3,87 80.2,87 81.9,82.8 81.9,82.7 80.8,82.7 
					"/>
		<polygon fill="#404041" points="87.5,86.1 87.5,85.3 89.5,85.3 89.5,84.4 87.5,84.4 87.5,83.6 89.7,83.6 89.7,82.7 86.6,82.7 
			86.6,87 89.8,87 89.8,86.1 		"/>
	</g>
	<path fill="#404041" d="M73.6,39.9c1.3-1.8,5.1-7,5.1-10.4c0-4.1-7.8-14.8-17.1-14.8c-9.4,0-17.1,10.9-17.1,15
		c0,3.4,4.2,8.3,5.9,10.2c-1.5,0.3-2.6,1.7-2.6,3.3c0,1.8,1.4,3.3,3.2,3.3c0.3,0,0.6,0,0.9-0.1c1.1,3.9,3.2,7.7,7.1,9.1l2.8,5.5
		l2.8-5.3c3.9-1.2,6.3-5.3,7.5-9.2c0.2,0.1,0.5,0.1,0.7,0.1c1.8,0,3.2-1.5,3.2-3.3C75.9,41.5,74.9,40.2,73.6,39.9z M77,29.4
		c0,1.5-1,3.6-2.2,5.6l-12.3-5.7l2.6-4.6l5.7-4.6C74.6,23.3,77,27.4,77,29.4z M61.5,16.2c3.1,0,6.1,1.4,8.6,3.4l-4.6,3.7h-7.8
		L53,19.5C55.5,17.6,58.4,16.2,61.5,16.2z M46,29.6c0-1.9,2.5-6.2,6.3-9.5l5.2,4.2l2.9,5L48.5,35C47.1,33.1,46,31,46,29.6z
		 M48.7,43.1c0-1.1,0.8-2.1,1.8-2.3c-0.7,0.5-1.2,1.3-1.2,2.3c0,1,0.5,1.8,1.1,2.3C49.5,45.1,48.7,44.2,48.7,43.1z M50.3,43.1
		c0-0.6,0.3-1.1,0.7-1.5c0.1,1,0.2,2.1,0.5,3.2C50.8,44.5,50.3,43.9,50.3,43.1z M51.6,38.8c-0.7-0.8-1.6-1.8-2.5-3L59.3,31
		L51.6,38.8z M53.7,45.9c-0.1,0.2-0.1,0.3-0.1,0.5c-0.6-2-0.8-4-0.9-5.2c0.8-0.3,1.6-0.6,2.5-0.7c-0.2,0.3-0.3,0.6-0.3,0.9
		c0,0.7,0.5,1.2,1.1,1.4c0,0,0,0,0,0c0-0.3,0.3-0.6,0.7-0.6s0.7,0.3,0.7,0.6c0,0,0,0,0,0c0.7-0.2,1.1-0.8,1.1-1.4
		c0-0.4-0.2-0.8-0.6-1.1c1,0,1.9,0.1,2.5,0.1c-0.6,2.2-1.5,6.2-1,7.1c0.1,0.2,0.3,0.3,0.5,0.4c-0.2,0-0.4,0-0.6,0
		c-0.3,0-0.7,0-1.1-0.1c-0.2,0-0.3,0-0.5-0.1c-0.2,0-0.3-0.1-0.5-0.1c-0.3-0.1-0.6-0.2-0.7-0.3c0,0-0.1,0-0.1-0.1c0,0,0,0,0-0.1
		c0,0,0,0,0,0c0,0,0,0-0.1,0L56,47l0-0.2l0,0l0,0c0-0.1,0-0.2,0-0.2c0-0.2,0-0.3,0.1-0.5c0.1-0.1,0.2-0.3,0.3-0.3
		c0.2-0.1,0.3-0.1,0.5-0.1c0.2,0,0.3,0.1,0.5,0.3c0.1,0.1,0.1,0.1,0.2,0.2c0,0.1,0.1,0.1,0.1,0.2c0.1,0.1,0.1,0.2,0.1,0.2
		s0-0.1,0.1-0.2c0-0.1,0.1-0.2,0.1-0.5c0-0.2-0.1-0.6-0.3-0.9c-0.2-0.3-0.6-0.6-1.1-0.7c-0.5-0.1-1.1-0.1-1.6,0.3
		C54.3,44.8,53.9,45.3,53.7,45.9z M60.5,49.4c0.3-0.2,0.6-0.4,0.8-0.6c0.2-0.2,0.4-0.3,0.5-0.5c0.1,0.2,0.3,0.3,0.5,0.5
		c0.2,0.2,0.5,0.4,0.8,0.6c0.3,0.2,0.6,0.3,0.9,0.5c-0.1,0-0.2,0-0.2,0c-0.3,0.1-0.6,0.1-0.9,0.1c-0.3,0-0.7,0.1-1.1,0
		c-0.4,0-0.7,0-1.1-0.1c-0.3,0-0.7-0.1-1-0.1c-0.1,0-0.2,0-0.3-0.1C59.8,49.7,60.2,49.6,60.5,49.4z M65.7,53.2L65.7,53.2L58,53.2
		c-1.4-0.9-2.4-2.1-3.2-3.6c0,0,0,0,0,0c0.3,0.2,0.6,0.3,0.9,0.4c0.3,0.1,0.6,0.1,0.8,0.2c0.5,0.1,1,0,1.5,0c0.3,0,0.6-0.1,0.9-0.2
		c0.1,0.1,0.3,0.3,0.6,0.4c0.3,0.2,0.6,0.3,1,0.5c0.2,0,0.4,0.1,0.6,0.1c0.2,0,0.4,0.1,0.6,0.1c0.2,0,0.4,0,0.6,0
		c0.2,0,0.4-0.1,0.6-0.1c0.2,0,0.4-0.1,0.5-0.2c0.2-0.1,0.3-0.2,0.5-0.3c0.2-0.1,0.4-0.3,0.5-0.4c0.3,0.1,0.6,0.2,1,0.3
		c0.5,0.1,1,0.1,1.5,0.1c0.3,0,0.6-0.1,0.9-0.1c0.3-0.1,0.6-0.2,0.9-0.4C67.8,51.4,66.8,52.5,65.7,53.2z M70.1,46.9
		c0-0.2-0.1-0.4-0.2-0.7c-0.2-0.6-0.6-1.2-1.2-1.5c-0.5-0.3-1.1-0.4-1.6-0.3c-0.5,0.1-0.9,0.4-1.1,0.7c-0.2,0.3-0.3,0.6-0.3,0.9
		c0,0.3,0.1,0.4,0.1,0.5c0,0.1,0.1,0.2,0.1,0.2s0-0.1,0.1-0.2c0,0,0.1-0.1,0.1-0.2c0-0.1,0.1-0.1,0.2-0.2c0.1-0.1,0.3-0.2,0.5-0.3
		c0.2,0,0.4,0,0.5,0.1c0.2,0.1,0.3,0.2,0.3,0.3c0.1,0.1,0.1,0.3,0.1,0.5c0,0.1,0,0.2,0,0.2l0,0l0,0l0,0.2l-0.1,0.3c0,0,0,0,0-0.1
		c0,0,0,0,0,0c0,0,0,0,0,0c0,0,0,0,0,0c0,0-0.1,0-0.1,0c0,0.1-0.2,0.1-0.3,0.1c-0.1,0-0.3,0.1-0.4,0.1c-0.3,0-0.7,0.1-1,0.1
		c-0.7,0-1.4,0-2,0c0.3-0.1,0.5-0.2,0.6-0.4c0.7-0.8,0-4.6-0.5-7.2c0.5,0,1.2-0.1,2.1-0.1c-0.3,0.3-0.5,0.6-0.5,1.1
		c0,0.6,0.4,1.1,1,1.4c0-0.3,0.3-0.5,0.6-0.5c0.4,0,0.7,0.3,0.7,0.6c0,0,0,0,0,0.1c0.8-0.2,1.3-0.8,1.3-1.5c0-0.3-0.1-0.6-0.3-0.8
		c1,0.2,1.9,0.4,2.8,0.9C71.2,42.9,70.8,44.9,70.1,46.9z M71.5,40.4c-3.6-1.6-8.2-0.9-8.4-0.9l-0.5,0.1l0.1,0.5
		c0.6,2.9,1.1,6.3,0.8,6.9c-0.2,0.2-1.1,0.5-2.2,0.4c-0.9-0.1-1.2-0.3-1.2-0.3c-0.2-0.5,0.4-4,1.2-6.9l0.1-0.5l-0.5-0.1
		c-0.2,0-4.6-0.8-8.4,0.6l8.9-9l0.1,0.1l0.1-0.2l9.9,9.1C71.5,40.2,71.5,40.3,71.5,40.4z M63.9,31.1l10.4,4.8
		c-0.7,1.1-1.4,2.2-2,2.9L63.9,31.1z M72.4,44.7c0.2-1,0.4-1.9,0.5-2.8c0.2,0.3,0.4,0.7,0.4,1.2C73.3,43.8,73,44.4,72.4,44.7z
		 M73.2,45.4c0.7-0.5,1.1-1.3,1.1-2.3c0-1-0.5-1.8-1.2-2.3c1,0.2,1.8,1.2,1.8,2.3C75,44.2,74.2,45.1,73.2,45.4z"/>
</g>
</svg>
