<?xml version="1.0" encoding="utf-8"?>
<!-- Generator: Adobe Illustrator 18.1.1, SVG Export Plug-In . SVG Version: 6.00 Build 0)  -->
<svg version="1.1" id="Layer_1" xmlns="http://www.w3.org/2000/svg" xmlns:xlink="http://www.w3.org/1999/xlink" x="0px" y="0px"
	 viewBox="0 0 135 69.8" enable-background="new 0 0 135 69.8" xml:space="preserve">
<g>
	<g>
		<path fill="#414042" d="M67.6-786.1c3.4,0,6.8,1.4,9.6,3.4l-2.6-4.5l-6.8-11.8c-0.1-0.2-0.4-0.2-0.5,0l-7.1,12.2l-2.4,4.2
			C60.7-784.7,64.1-786.1,67.6-786.1z"/>
		<path fill="#414042" d="M96-750.1L86.3-767l-0.4-0.7c-0.8,2.9-2.8,6.2-4.3,8.3c0.9,0.9,1.4,2.1,1.4,3.3c0,2.3-1.6,4.2-3.8,4.6
			c-0.2,0.6-0.5,1.2-0.7,1.8h1.9h15.5C96-749.7,96.1-749.9,96-750.1z"/>
		<path fill="#414042" d="M56.7-751.5c-2.3-0.3-4-2.3-4-4.7c0-1.3,0.6-2.6,1.5-3.4c-1.9-2.2-4.2-5.3-5-8.1l-0.8,1.4L39-750.1
			c-0.1,0.2,0,0.4,0.2,0.4h17h1.1C57.1-750.3,56.9-750.9,56.7-751.5z"/>
	</g>
	<path fill="#414042" stroke="#000000" stroke-width="0.2963" stroke-miterlimit="10" d="M61.3-754"/>
	<g>
		<path fill="#414042" d="M6-732h0.7l0,0c0.1,0,1.3-1,1.3-3h2v12.4L9-722.3v0.5h5.8v-0.5l-1.2-0.3v-12.4h2c0,2,1.3,3,1.3,3l0,0h0.7
			v-3.7H6V-732z"/>
		<polygon fill="#414042" points="26.9,-735.3 28.1,-735 28.1,-729.1 24.1,-729.1 24.1,-735 25.3,-735.3 25.3,-735.8 19.5,-735.8 
			19.5,-735.3 20.7,-735 20.7,-722.6 19.5,-722.3 19.5,-721.9 25.3,-721.9 25.3,-722.3 24.1,-722.6 24.1,-728.4 28.1,-728.4 
			28.1,-722.6 26.9,-722.3 26.9,-721.9 32.7,-721.9 32.7,-722.3 31.5,-722.6 31.5,-735 32.7,-735.3 32.7,-735.8 26.9,-735.8 		"/>
		<polygon fill="#414042" points="34.8,-735.3 35.9,-735 35.9,-722.6 34.8,-722.3 34.8,-721.9 40.5,-721.9 40.5,-722.3 39.4,-722.6 
			39.4,-735 40.5,-735.3 40.5,-735.8 34.8,-735.8 		"/>
		<path fill="#414042" d="M52.8-726.5c-0.5-1.1-1.6-1.5-2.4-1.7c0.4-0.1,0.9-0.2,1.4-0.4c1.6-0.6,2.4-1.7,2.4-3.3
			c0-2.6-2.1-3.9-6.4-3.9h-5.3v0.5l1.2,0.3v12.4l-1.2,0.3v0.5h6v-0.5l-1.4-0.3v-5.3h1.1l1.9,4.3c0.5,1.1,1.3,1.7,2.4,1.7h2.8v-0.5
			l-1-0.3L52.8-726.5z M50.7-731.9c0,2-1.1,3.2-2.8,3.2h-0.7v-6.4h0.7C49.6-735.1,50.7-733.9,50.7-731.9z"/>
		<path fill="#414042" d="M62.2-735.8h-5.1v0.5l1.2,0.3v12.4l-1.2,0.3v0.5h5.1c4.7,0,7.3-2.5,7.3-6.9
			C69.5-733.2,66.8-735.8,62.2-735.8z M65.9-728.8c0,1.5,0,6.3-3.7,6.3h-0.5v-12.5h0.5C63.1-735.1,65.9-735.1,65.9-728.8z"/>
		<path fill="#414042" d="M90.7-735.3l1.4,0.6l-2.7,8l-2.9-7.3c-0.4-1.1-1.4-1.7-2.7-1.7h-2.4v0.5l1.1,0.2l1.4,3.6l-1.6,4.8
			l-2.9-7.3c-0.2-0.5-0.9-1.7-2.7-1.7h-2.4v0.5l1.1,0.2l5.3,13.3l0,0.1h0.7l3-8.7l3.4,8.7l0,0.1h0.7l4.4-13l1.6-0.6v-0.5h-3.8
			V-735.3z"/>
		<polygon fill="#414042" points="96,-735.3 97.2,-735 97.2,-722.6 96,-722.3 96,-721.9 101.8,-721.9 101.8,-722.3 100.6,-722.6 
			100.6,-735 101.8,-735.3 101.8,-735.8 96,-735.8 		"/>
		<path fill="#414042" d="M110.5-730.1c-1.6-0.9-3.1-1.8-3.1-3.3c0-1.3,0.9-2.1,1.8-2.1c2.5,0,3.4,3.3,3.4,3.3l0,0.1h1v-3.9h-0.6
			l0,0c0,0-0.6,0.4-1,1c-0.3-0.3-1.5-1.2-3.1-1.2c-3,0-4.9,1.4-4.9,3.5c0,2.7,2.2,3.9,4.1,5c1.5,0.9,2.9,1.6,2.9,2.9
			c0,1.4-0.9,2.3-2.3,2.3c-2.9,0-3.8-3.3-3.8-3.3l0-0.1h-1v3.9h0.6l0,0c0,0,0.6-0.4,1-1c0.3,0.3,1.6,1.2,3.5,1.2
			c4,0,5.5-2.1,5.5-3.9C114.3-727.8,112.3-729,110.5-730.1z"/>
		<polygon fill="#414042" points="129,-735.3 129,-735.8 123.2,-735.8 123.2,-735.3 124.4,-735 124.4,-729.1 120.4,-729.1 
			120.4,-735 121.6,-735.3 121.6,-735.8 115.8,-735.8 115.8,-735.3 117,-735 117,-722.6 115.8,-722.3 115.8,-721.9 121.6,-721.9 
			121.6,-722.3 120.4,-722.6 120.4,-728.4 124.4,-728.4 124.4,-722.6 123.2,-722.3 123.2,-721.9 129,-721.9 129,-722.3 
			127.8,-722.6 127.8,-735 		"/>
	</g>
	<g>
		<path fill="#414042" d="M39.2-713.6L39.2-713.6c-0.2,0.2-0.4,0.3-0.5,0.4c-0.2,0.1-0.3,0.1-0.6,0.1c-0.3,0-0.6-0.1-0.8-0.4
			c-0.2-0.2-0.3-0.5-0.3-0.9v0c0-0.3,0.1-0.6,0.3-0.9c0.2-0.2,0.5-0.4,0.8-0.4c0.4,0,0.7,0.2,1,0.5l0,0l0.6-0.7l0,0
			c-0.2-0.2-0.4-0.4-0.7-0.5c-0.3-0.1-0.6-0.2-0.9-0.2c-0.6,0-1.2,0.2-1.6,0.6c-0.4,0.4-0.6,0.9-0.6,1.5v0c0,0.6,0.2,1.1,0.6,1.5
			c0.4,0.4,0.9,0.6,1.5,0.6c0.4,0,0.7-0.1,1-0.2c0.3-0.1,0.5-0.3,0.7-0.6l0,0L39.2-713.6L39.2-713.6z"/>
		<path fill="#414042" d="M48.1-715L48.1-715c0-0.4-0.1-0.7-0.4-1c-0.3-0.3-0.7-0.4-1.2-0.4h-1.9v4.2h1v-1.3h0.7l0.9,1.3l0,0h1.1
			l-1-1.5C47.8-714,48.1-714.4,48.1-715z M45.6-715.6h0.9c0.2,0,0.4,0,0.5,0.1c0.1,0.1,0.2,0.2,0.2,0.4v0c0,0.2-0.1,0.3-0.2,0.4
			c-0.1,0.1-0.3,0.2-0.5,0.2h-0.9V-715.6z"/>
		<polygon fill="#414042" points="54,-713.9 56,-713.9 56,-714.8 54,-714.8 54,-715.6 56.2,-715.6 56.2,-716.5 53,-716.5 53,-712.2 
			56.2,-712.2 56.2,-713.1 54,-713.1 		"/>
		<path fill="#414042" d="M63.4-716.5h-0.9l-1.8,4.2l0,0.1h1l0.4-0.9h1.7l0.4,0.9l0,0h1L63.4-716.5L63.4-716.5z M63.5-714h-1
			l0.5-1.2L63.5-714z"/>
		<polygon fill="#414042" points="69.6,-715.5 70.9,-715.5 70.9,-712.2 71.9,-712.2 71.9,-715.5 73.1,-715.5 73.1,-716.5 
			69.6,-716.5 		"/>
		<rect x="77.9" y="-716.5" fill="#414042" width="1" height="4.2"/>
		<polygon fill="#414042" points="85.8,-713.6 84.7,-716.4 84.7,-716.5 83.6,-716.5 85.3,-712.2 85.3,-712.2 86.2,-712.2 
			87.9,-716.4 87.9,-716.5 86.8,-716.5 		"/>
		<polygon fill="#414042" points="93.6,-713.1 93.6,-713.9 95.5,-713.9 95.5,-714.8 93.6,-714.8 93.6,-715.6 95.8,-715.6 
			95.8,-716.5 92.6,-716.5 92.6,-712.2 95.8,-712.2 95.8,-713.1 		"/>
	</g>
	<path fill="#414042" d="M79.6-759.3c1.3-1.8,5.1-7,5.1-10.4c0-4.1-7.8-14.8-17.1-14.8c-9.4,0-17.1,10.9-17.1,15
		c0,3.4,4.2,8.3,5.9,10.2c-1.5,0.3-2.6,1.7-2.6,3.3c0,1.8,1.4,3.3,3.2,3.3c0.3,0,0.6,0,0.9-0.1c1.1,3.9,3.2,7.7,7.1,9.1l2.8,5.5
		l2.8-5.3c3.9-1.2,6.3-5.3,7.5-9.2c0.2,0.1,0.5,0.1,0.7,0.1c1.8,0,3.2-1.5,3.2-3.3C82-757.7,81-759,79.6-759.3z M83.1-769.8
		c0,1.5-1,3.6-2.2,5.6l-12.3-5.7l2.6-4.6L77-779C80.6-775.9,83.1-771.8,83.1-769.8z M67.5-783c3.1,0,6.1,1.4,8.6,3.4l-4.6,3.7h-7.8
		l-4.7-3.8C61.5-781.6,64.5-783,67.5-783z M52-769.6c0-1.9,2.5-6.2,6.3-9.5l5.2,4.2l2.9,5l-11.9,5.7C53.1-766.1,52-768.2,52-769.6z
		 M54.7-756.1c0-1.1,0.8-2.1,1.8-2.3c-0.7,0.5-1.2,1.3-1.2,2.3c0,1,0.5,1.8,1.1,2.3C55.5-754.1,54.7-755,54.7-756.1z M56.4-756.1
		c0-0.6,0.3-1.1,0.7-1.5c0.1,1,0.2,2.1,0.5,3.2C56.8-754.7,56.4-755.3,56.4-756.1z M57.6-760.4c-0.7-0.8-1.6-1.8-2.5-3l10.3-4.9
		L57.6-760.4z M59.7-753.3c-0.1,0.2-0.1,0.3-0.1,0.5c-0.6-2-0.8-4-0.9-5.2c0.8-0.3,1.6-0.6,2.5-0.7c-0.2,0.3-0.3,0.6-0.3,0.9
		c0,0.7,0.5,1.2,1.1,1.4c0,0,0,0,0,0c0-0.3,0.3-0.6,0.7-0.6c0.4,0,0.7,0.3,0.7,0.6c0,0,0,0,0,0c0.7-0.2,1.1-0.8,1.1-1.4
		c0-0.4-0.2-0.8-0.6-1.1c1,0,1.9,0.1,2.5,0.1c-0.6,2.2-1.5,6.2-1,7.1c0.1,0.2,0.3,0.3,0.5,0.4c-0.2,0-0.4,0-0.6,0
		c-0.3,0-0.7,0-1.1-0.1c-0.2,0-0.3,0-0.5-0.1c-0.2,0-0.3-0.1-0.5-0.1c-0.3-0.1-0.6-0.2-0.7-0.3c0,0-0.1,0-0.1-0.1c0,0,0,0,0-0.1
		c0,0,0,0,0,0c0,0,0,0-0.1,0l-0.1-0.3l0-0.2l0,0l0,0c0-0.1,0-0.2,0-0.2c0-0.2,0-0.3,0.1-0.5c0.1-0.1,0.2-0.3,0.3-0.3
		c0.2-0.1,0.3-0.1,0.5-0.1c0.2,0,0.3,0.1,0.5,0.3c0.1,0.1,0.1,0.1,0.2,0.2c0,0.1,0.1,0.1,0.1,0.2c0.1,0.1,0.1,0.2,0.1,0.2
		s0-0.1,0.1-0.2c0-0.1,0.1-0.2,0.1-0.5c0-0.2-0.1-0.6-0.3-0.9c-0.2-0.3-0.6-0.6-1.1-0.7c-0.5-0.1-1.1-0.1-1.6,0.3
		C60.3-754.4,59.9-753.9,59.7-753.3z M66.5-749.8c0.3-0.2,0.6-0.4,0.8-0.6c0.2-0.2,0.4-0.3,0.5-0.5c0.1,0.2,0.3,0.3,0.5,0.5
		c0.2,0.2,0.5,0.4,0.8,0.6c0.3,0.2,0.6,0.3,0.9,0.5c-0.1,0-0.2,0-0.2,0c-0.3,0.1-0.6,0.1-0.9,0.1c-0.3,0-0.7,0.1-1.1,0
		c-0.4,0-0.7,0-1.1-0.1c-0.3,0-0.7-0.1-1-0.1c-0.1,0-0.2,0-0.3-0.1C65.8-749.5,66.2-749.6,66.5-749.8z M71.7-746L71.7-746L64-746
		c-1.4-0.9-2.4-2.1-3.2-3.6c0,0,0,0,0,0c0.3,0.2,0.6,0.3,0.9,0.4c0.3,0.1,0.6,0.1,0.8,0.2c0.5,0.1,1,0,1.5,0c0.3,0,0.6-0.1,0.9-0.2
		c0.1,0.1,0.3,0.3,0.6,0.4c0.3,0.2,0.6,0.3,1,0.5c0.2,0,0.4,0.1,0.6,0.1c0.2,0,0.4,0.1,0.6,0.1c0.2,0,0.4,0,0.6,0
		c0.2,0,0.4-0.1,0.6-0.1c0.2,0,0.4-0.1,0.5-0.2c0.2-0.1,0.3-0.2,0.5-0.3c0.2-0.1,0.4-0.3,0.5-0.4c0.3,0.1,0.6,0.2,1,0.3
		c0.5,0.1,1,0.1,1.5,0.1c0.3,0,0.6-0.1,0.9-0.1c0.3-0.1,0.6-0.2,0.9-0.4C73.8-747.8,72.8-746.7,71.7-746z M76.1-752.3
		c0-0.2-0.1-0.4-0.2-0.7c-0.2-0.6-0.6-1.2-1.2-1.5c-0.5-0.3-1.1-0.4-1.6-0.3c-0.5,0.1-0.9,0.4-1.1,0.7c-0.2,0.3-0.3,0.6-0.3,0.9
		c0,0.3,0.1,0.4,0.1,0.5c0,0.1,0.1,0.2,0.1,0.2s0-0.1,0.1-0.2c0,0,0.1-0.1,0.1-0.2c0-0.1,0.1-0.1,0.2-0.2c0.1-0.1,0.3-0.2,0.5-0.3
		c0.2,0,0.4,0,0.5,0.1c0.2,0.1,0.3,0.2,0.3,0.3c0.1,0.1,0.1,0.3,0.1,0.5c0,0.1,0,0.2,0,0.2l0,0l0,0l0,0.2l-0.1,0.3c0,0,0,0,0-0.1
		c0,0,0,0,0,0c0,0,0,0,0,0c0,0,0,0,0,0c0,0-0.1,0-0.1,0c0,0.1-0.2,0.1-0.3,0.1c-0.1,0-0.3,0.1-0.4,0.1c-0.3,0-0.7,0.1-1,0.1
		c-0.7,0-1.4,0-2,0c0.3-0.1,0.5-0.2,0.6-0.4c0.7-0.8,0-4.6-0.5-7.2c0.5,0,1.2-0.1,2.1-0.1c-0.3,0.3-0.5,0.6-0.5,1.1
		c0,0.6,0.4,1.1,1,1.4c0-0.3,0.3-0.5,0.6-0.5c0.4,0,0.7,0.3,0.7,0.6c0,0,0,0,0,0.1c0.8-0.2,1.3-0.8,1.3-1.5c0-0.3-0.1-0.6-0.3-0.8
		c1,0.2,1.9,0.4,2.8,0.9C77.3-756.3,76.8-754.3,76.1-752.3z M77.5-758.8c-3.6-1.6-8.2-0.9-8.4-0.9l-0.5,0.1l0.1,0.5
		c0.6,2.9,1.1,6.3,0.8,6.9c-0.2,0.2-1.1,0.5-2.2,0.4c-0.9-0.1-1.2-0.3-1.2-0.3c-0.2-0.5,0.4-4,1.2-6.9l0.1-0.5l-0.5-0.1
		c-0.2,0-4.6-0.8-8.4,0.6l8.9-9l0.1,0.1l0.1-0.2l9.9,9.1C77.5-759,77.5-758.9,77.5-758.8z M69.9-768.1l10.4,4.8
		c-0.7,1.1-1.4,2.2-2,2.9L69.9-768.1z M78.4-754.5c0.2-1,0.4-1.9,0.5-2.8c0.2,0.3,0.4,0.7,0.4,1.2C79.4-755.4,79-754.8,78.4-754.5z
		 M79.2-753.8c0.7-0.5,1.1-1.3,1.1-2.3c0-1-0.5-1.8-1.2-2.3c1,0.2,1.8,1.2,1.8,2.3C81-755,80.2-754.1,79.2-753.8z"/>
</g>
<line fill="none" stroke="#414042" stroke-miterlimit="10" x1="0" y1="-682.7" x2="135" y2="-682.7"/>
<line fill="none" stroke="#414042" stroke-miterlimit="10" x1="0" y1="-479.2" x2="135" y2="-479.2"/>
<line fill="none" stroke="#414042" stroke-width="10" stroke-miterlimit="10" x1="-376" y1="-570.8" x2="140" y2="-570.8"/>
<line fill="none" stroke="#414042" stroke-width="10" stroke-miterlimit="10" x1="-376" y1="-85.2" x2="140" y2="-85.2"/>
<line fill="none" stroke="#414042" stroke-width="10" stroke-miterlimit="10" x1="-376" y1="92.3" x2="140" y2="92.3"/>
<g>
	<text transform="matrix(1 0 0 1 -375.9831 -642.4106)" font-family="'MuseoSans-500'" font-size="8" letter-spacing="2">tobias funke</text>
</g>
<g>
	<text transform="matrix(1 0 0 1 -375.9831 -412.4387)" font-family="'MuseoSans-500'" font-size="8" letter-spacing="2">Brand Concepts: Round 1 </text>
</g>
<g>
	<rect x="0" y="-462.8" fill="none" width="140.4" height="206.5"/>
	<text transform="matrix(1 0 0 1 -3.0356 -455.9536)"><tspan x="0" y="0" font-family="'MuseoSans-500'" font-size="8" letter-spacing="2">*Brand Deliverance</tspan><tspan x="3.1" y="14" font-family="'MuseoSans-100'" font-size="8">Includes brand marks in various</tspan><tspan x="3.1" y="27" font-family="'MuseoSans-100'" font-size="8">file types. Full rights &amp; ownership.</tspan><tspan x="0" y="41" font-family="'MuseoSans-500'" font-size="8" letter-spacing="2">*Due By</tspan><tspan x="3.1" y="55" font-family="'MuseoSans-100'" font-size="8">We convienetly accept cash, </tspan><tspan x="3.1" y="69" font-family="'MuseoSans-100'" font-size="8">check, Square, or direct transfers.</tspan><tspan x="3.1" y="89" font-family="'MuseoSans-100'" font-size="8">Please make checks payable to: </tspan><tspan x="3.1" y="103" font-family="'MuseoSans-100'" font-size="8">Third Wish Creative, LLC.</tspan><tspan x="3.1" y="123" font-family="'MuseoSans-100'" font-size="8">Payment must be received in full </tspan><tspan x="3.1" y="135" font-family="'MuseoSans-100'" font-size="8">by date provided. Failure to do so </tspan><tspan x="3.1" y="147" font-family="'MuseoSans-100'" font-size="8">will result in a $50 late fee each </tspan><tspan x="3.1" y="159" font-family="'MuseoSans-100'" font-size="8">day payment is past due. </tspan></text>
</g>
<g>
	<text transform="matrix(1 0 0 1 -192.0228 -412.4387)" font-family="'MuseoSans-500'" font-size="8" letter-spacing="2">2</text>
</g>
<g>
	<text transform="matrix(1 0 0 1 -67.3593 -412.4387)" font-family="'MuseoSans-500'" font-size="8" letter-spacing="2">1,500</text>
</g>
<g>
	<text transform="matrix(1 0 0 1 -375.9831 -367.7419)" font-family="'MuseoSans-500'" font-size="8" letter-spacing="2">Brand Concepts: Round 2</text>
</g>
<g>
	<text transform="matrix(1 0 0 1 -192.0228 -367.7419)" font-family="'MuseoSans-500'" font-size="8" letter-spacing="2">2.25</text>
</g>
<g>
	<text transform="matrix(1 0 0 1 -56.6074 -367.7419)" font-family="'MuseoSans-500'" font-size="8" letter-spacing="2">500</text>
</g>
<g>
	<text transform="matrix(1 0 0 1 -375.9831 -323.7419)" font-family="'MuseoSans-500'" font-size="8" letter-spacing="2">Brand Concepts: Round 3</text>
</g>
<g>
	<text transform="matrix(1 0 0 1 -192.0228 -323.7419)" font-family="'MuseoSans-500'" font-size="8" letter-spacing="2">2.5</text>
</g>
<g>
	<text transform="matrix(1 0 0 1 -56.6074 -323.7419)" font-family="'MuseoSans-500'" font-size="8" letter-spacing="2">500</text>
</g>
<g>
	<text transform="matrix(1 0 0 1 -375.9831 -277.7419)" font-family="'MuseoSans-500'" font-size="8" letter-spacing="2">Brand Concepts: Round 4</text>
</g>
<g>
	<text transform="matrix(1 0 0 1 -192.0228 -277.7419)" font-family="'MuseoSans-500'" font-size="8" letter-spacing="2">2.75</text>
</g>
<g>
	<text transform="matrix(1 0 0 1 -56.6074 -277.7419)" font-family="'MuseoSans-500'" font-size="8" letter-spacing="2">500</text>
</g>
<g>
	<text transform="matrix(1 0 0 1 -68.2715 -191.422)" font-family="'MuseoSans-500'" font-size="8" letter-spacing="2">3,000</text>
</g>
<g>
	<text transform="matrix(1 0 0 1 -100.2314 -145.4213)" font-family="'MuseoSans-500'" font-size="8" letter-spacing="2">06.04.2015</text>
</g>
<g>
</g>
<g>
	<text transform="matrix(1 0 0 1 -375.983 -454.4515)" font-family="'MuseoSans-900'" font-size="8" letter-spacing="1">description</text>
</g>
<g>
	<text transform="matrix(1 0 0 1 -375.983 -496.4539)" fill="#A7A9AC" font-family="'YesevaOne'" font-size="8">We promised to grant you...</text>
</g>
<g>
	<text transform="matrix(1 0 0 1 -192.0226 -454.4515)" font-family="'MuseoSans-900'" font-size="8" letter-spacing="1">milestone</text>
</g>
<g>
	<text transform="matrix(1 0 0 1 -192.0226 -191.4219)" font-family="'MuseoSans-900'" font-size="8" letter-spacing="2">total</text>
</g>
<g>
	<text transform="matrix(1 0 0 1 -192.0226 -145.4219)" font-family="'MuseoSans-900'" font-size="8" letter-spacing="2">due by*</text>
</g>
<g>
	<text transform="matrix(1 0 0 1 -67.3595 -454.4516)" font-family="'MuseoSans-900'" font-size="8" letter-spacing="1">total</text>
</g>
<g>
	<text transform="matrix(1 0 0 1 -375.9833 -535.4371)" font-family="'MuseoSans-900'" font-size="8" letter-spacing="1"> #5232015a  ///  Analrapist  ///  may 23, 2015</text>
</g>
<g>
	<text transform="matrix(1 0 0 1 -375.9831 -627.0569)"><tspan x="0" y="0" font-family="'MuseoSans-500'" font-size="8" letter-spacing="2">3425 sudden valley</tspan><tspan x="0" y="14" font-family="'MuseoSans-500'" font-size="8" letter-spacing="2">Los angelas, Ca 83414</tspan></text>
</g>
<g>
	<text transform="matrix(1 0 0 1 3.210449e-02 -642.4108)" font-family="'MuseoSans-500'" font-size="8" letter-spacing="2">435 e garfield ave</text>
</g>
<g>
	<text transform="matrix(1 0 0 1 3.210449e-02 -627.0569)"><tspan x="0" y="0" font-family="'MuseoSans-500'" font-size="8" letter-spacing="2">unit 1</tspan><tspan x="0" y="14" font-family="'MuseoSans-500'" font-size="8" letter-spacing="2">milwaukee wi, 53212</tspan></text>
</g>
<rect x="-337.1" y="-978" fill="none" stroke="#5C2D90" stroke-miterlimit="10" width="202" height="89.5"/>
<line fill="none" stroke="#A7A9AC" stroke-miterlimit="10" stroke-dasharray="0.581,6.3921" x1="-112.1" y1="-470.7" x2="-112.1" y2="-217.4"/>
<line fill="none" stroke="#A7A9AC" stroke-miterlimit="10" stroke-dasharray="0.581,6.3921" x1="-204" y1="-470.7" x2="-204" y2="-217.4"/>
<line fill="none" stroke="#414042" stroke-miterlimit="10" x1="-376" y1="-480.8" x2="-32.1" y2="-480.8"/>
<line fill="none" stroke="#414042" stroke-miterlimit="10" x1="-376" y1="-435.7" x2="-32.1" y2="-435.7"/>
<line fill="none" stroke="#A7A9AC" stroke-miterlimit="10" stroke-dasharray="0.581,6.3921" x1="-376" y1="-394.1" x2="-32.1" y2="-394.1"/>
<line fill="none" stroke="#A7A9AC" stroke-miterlimit="10" stroke-dasharray="0.581,6.3921" x1="-376" y1="-350" x2="-32.1" y2="-350"/>
<line fill="none" stroke="#A7A9AC" stroke-miterlimit="10" stroke-dasharray="0.581,6.3921" x1="-376" y1="-304" x2="-32.1" y2="-304"/>
<line fill="none" stroke="#A7A9AC" stroke-miterlimit="10" stroke-dasharray="0.581,6.3921" x1="-376" y1="-259" x2="-32.1" y2="-259"/>
<g>
	<text transform="matrix(1 0 0 1 -375.9831 -235.7443)" font-family="'MuseoSans-500'" font-size="8" letter-spacing="2">Brand Deliverance*</text>
</g>
<g>
	<text transform="matrix(1 0 0 1 -375.9831 132.2557)" font-family="'MuseoSans-500'" font-size="8" letter-spacing="2">THIRDWISHCREATIVE.COM  -  TALK@THIRDWISHCREATIVE.COM</text>
</g>
<g>
	<text transform="matrix(1 0 0 1 -192.0228 -235.7443)" font-family="'MuseoSans-500'" font-size="8" letter-spacing="2">3</text>
</g>
<g>
	<text transform="matrix(1 0 0 1 -56.6074 -235.7443)" font-family="'MuseoSans-500'" font-size="8" letter-spacing="2">500</text>
</g>
<line fill="none" stroke="#A7A9AC" stroke-miterlimit="10" stroke-dasharray="0.581,6.3921" x1="-376" y1="-217" x2="-32.1" y2="-217"/>
<line fill="none" stroke="#414042" stroke-miterlimit="10" x1="-204" y1="-175.7" x2="-32.1" y2="-175.7"/>
<line fill="none" stroke="#414042" stroke-miterlimit="10" x1="-204" y1="-123.7" x2="-32.1" y2="-123.7"/>
<g>
	<line fill="none" stroke="#414042" stroke-miterlimit="10" x1="0" y1="36.8" x2="135" y2="36.8"/>
	<g>
		<text transform="matrix(1 0 0 1 3.210449e-02 6.8001)"><tspan x="0" y="0" font-family="'MuseoSans-900'" font-size="8" letter-spacing="1">storytelling,design, </tspan><tspan x="0" y="14" font-family="'MuseoSans-900'" font-size="8" letter-spacing="1">and development</tspan></text>
	</g>
	<g>
		<polygon fill="#414042" points="53.9,69.8 57.5,63.5 61.1,69.8 		"/>
		<polygon fill="#414042" points="63.9,69.8 67.5,63.5 71.1,69.8 		"/>
		<polygon fill="#414042" points="73.9,69.8 77.5,63.5 81.1,69.8 		"/>
	</g>
</g>
<g>
	<rect x="-377.5" y="-61.8" fill="none" width="345.4" height="101"/>
	<text transform="matrix(1 0 0 1 -377.4609 -56.071)"><tspan x="0" y="0" fill="#A7A9AC" font-family="'YesevaOne'" font-size="8">Tobias,</tspan><tspan x="0" y="22" fill="#A7A9AC" font-family="'YesevaOne'" font-size="8">We really enjoyed working with you. Your story is one that we found unique and engaging. </tspan><tspan x="0" y="33" fill="#A7A9AC" font-family="'YesevaOne'" font-size="8">We hope we were able to grant all your concept, design and development wishes. Please do </tspan><tspan x="0" y="44" fill="#A7A9AC" font-family="'YesevaOne'" font-size="8">not hesitate to contact us with any questions or concerns. We look forward to watching your </tspan><tspan x="0" y="55" fill="#A7A9AC" font-family="'YesevaOne'" font-size="8">story unfold.</tspan><tspan x="0" y="77" fill="#A7A9AC" font-family="'YesevaOne'" font-size="8">Sincerly,</tspan><tspan x="0" y="88" fill="#A7A9AC" font-family="'YesevaOne'" font-size="8">The Genies at Third Wish Creative</tspan></text>
</g>
</svg>
